<mxfile host="www.draw.io" modified="2020-02-03T03:41:55.885Z" agent="Mozilla/5.0 (Windows NT 10.0; Win64; x64) AppleWebKit/537.36 (KHTML, like Gecko) Chrome/79.0.3945.130 Safari/537.36" etag="p7QO2GK0JIpUkV-aKUgB" version="12.6.4" type="github">
  <diagram id="CQ3KaExliSfZ6187Da4M" name="Page-1">
    <mxGraphModel dx="1422" dy="745" grid="1" gridSize="10" guides="1" tooltips="1" connect="1" arrows="1" fold="1" page="1" pageScale="1" pageWidth="1169" pageHeight="827" math="0" shadow="0">
      <root>
        <mxCell id="0"/>
        <mxCell id="1" parent="0"/>
        <mxCell id="skK5ssZXJBMdEnIlcwYf-1" value="Digital Certificate&lt;br style=&quot;font-size: 30px;&quot;&gt;(Driver License Analogy)" style="text;html=1;align=center;verticalAlign=middle;resizable=0;points=[];autosize=1;fontSize=30;fontStyle=1" parent="1" vertex="1">
          <mxGeometry x="399" y="10" width="370" height="80" as="geometry"/>
        </mxCell>
        <mxCell id="skK5ssZXJBMdEnIlcwYf-2" value="Name: Bob&lt;br&gt;Exp: 2026&lt;br&gt;Issuer: DMV&lt;br&gt;&lt;br&gt;&lt;u&gt;Signature &lt;/u&gt;by DMV" style="whiteSpace=wrap;html=1;aspect=fixed;fontSize=30;verticalAlign=bottom;" parent="1" vertex="1">
          <mxGeometry x="60" y="240" width="280" height="280" as="geometry"/>
        </mxCell>
        <mxCell id="skK5ssZXJBMdEnIlcwYf-4" value="" style="shape=actor;whiteSpace=wrap;html=1;fontSize=30;" parent="1" vertex="1">
          <mxGeometry x="80" y="250" width="40" height="60" as="geometry"/>
        </mxCell>
        <mxCell id="skK5ssZXJBMdEnIlcwYf-6" value="&lt;font style=&quot;font-size: 29px&quot;&gt;Amazon &lt;b&gt;&lt;font color=&quot;#7ea6e0&quot;&gt;Public &lt;/font&gt;&lt;/b&gt;Key&lt;br&gt;&lt;br&gt;Name: Amazon.com&lt;br&gt;Exp: 2026&lt;br&gt;Issuer: DigiCert&lt;br&gt;&lt;br&gt;&lt;u&gt;Signature &lt;/u&gt;by DigiCert&lt;/font&gt;" style="whiteSpace=wrap;html=1;aspect=fixed;fontSize=30;verticalAlign=bottom;" parent="1" vertex="1">
          <mxGeometry x="710" y="240" width="280" height="280" as="geometry"/>
        </mxCell>
        <mxCell id="skK5ssZXJBMdEnIlcwYf-8" value="Bob&#39;s&lt;br&gt;Driver License" style="text;html=1;align=center;verticalAlign=middle;resizable=0;points=[];autosize=1;fontSize=30;" parent="1" vertex="1">
          <mxGeometry x="95" y="150" width="210" height="80" as="geometry"/>
        </mxCell>
        <mxCell id="skK5ssZXJBMdEnIlcwYf-9" value="Amazon&#39;s&lt;br&gt;Digital Certificate" style="text;html=1;align=center;verticalAlign=middle;resizable=0;points=[];autosize=1;fontSize=30;" parent="1" vertex="1">
          <mxGeometry x="730" y="150" width="240" height="80" as="geometry"/>
        </mxCell>
        <mxCell id="skK5ssZXJBMdEnIlcwYf-10" value="&lt;font style=&quot;font-size: 16px&quot;&gt;Trusted Third Party&lt;/font&gt;" style="whiteSpace=wrap;html=1;shape=partialRectangle;top=0;left=0;bottom=1;right=0;points=[[0,1],[1,1]];strokeColor=#000000;fillColor=none;align=center;verticalAlign=middle;routingCenterY=0.5;snapToPoint=1;container=1;recursiveResize=0;autosize=1;treeFolding=1;treeMoving=1;fontSize=30;horizontal=1;" parent="1" vertex="1">
          <mxGeometry x="1010" y="430" width="145" height="50" as="geometry"/>
        </mxCell>
        <mxCell id="skK5ssZXJBMdEnIlcwYf-11" value="" style="edgeStyle=entityRelationEdgeStyle;startArrow=none;endArrow=none;segment=10;curved=1;fontSize=30;dashed=1;" parent="1" target="skK5ssZXJBMdEnIlcwYf-10" edge="1">
          <mxGeometry relative="1" as="geometry">
            <mxPoint x="990" y="500" as="sourcePoint"/>
          </mxGeometry>
        </mxCell>
      </root>
    </mxGraphModel>
  </diagram>
</mxfile>
